<?xml version="1.0" encoding="UTF-8"?>
<svg width="24px" height="24px" viewBox="0 0 24 24" version="1.1" xmlns="http://www.w3.org/2000/svg" xmlns:xlink="http://www.w3.org/1999/xlink">
    <!-- Generator: Sketch 48.2 (47327) - http://www.bohemiancoding.com/sketch -->
    <title>message - anticon</title>
    <desc>Created with Sketch.</desc>
    <defs></defs>
    <g id="Artboard-Copy-2" stroke="none" stroke-width="1" fill="none" fill-rule="evenodd" transform="translate(-1172.000000, -19.000000)">
        <path d="M1179.75781,29.3359375 C1180.00781,29.5859388 1180.13281,29.8906232 1180.13281,30.25 C1180.13281,30.6093768 1180.00781,30.9140612 1179.75781,31.1640625 C1179.50781,31.4140638 1179.20313,31.5390625 1178.84375,31.5390625 C1178.48437,31.5390625 1178.17969,31.4140638 1177.92969,31.1640625 C1177.67969,30.9140612 1177.55469,30.6093768 1177.55469,30.25 C1177.55469,29.8906232 1177.67969,29.5859388 1177.92969,29.3359375 C1178.17969,29.0859362 1178.48437,28.9609375 1178.84375,28.9609375 C1179.20313,28.9609375 1179.50781,29.0859362 1179.75781,29.3359375 Z M1190.07031,29.3359375 C1190.32031,29.5859388 1190.44531,29.8906232 1190.44531,30.25 C1190.44531,30.6093768 1190.32031,30.9140612 1190.07031,31.1640625 C1189.82031,31.4140638 1189.51563,31.5390625 1189.15625,31.5390625 C1188.79687,31.5390625 1188.49219,31.4140638 1188.24219,31.1640625 C1187.99219,30.9140612 1187.86719,30.6093768 1187.86719,30.25 C1187.86719,29.8906232 1187.99219,29.5859388 1188.24219,29.3359375 C1188.49219,29.0859362 1188.79687,28.9609375 1189.15625,28.9609375 C1189.51563,28.9609375 1189.82031,29.0859362 1190.07031,29.3359375 Z M1184.91406,29.3359375 C1185.16406,29.5859388 1185.28906,29.8906232 1185.28906,30.25 C1185.28906,30.6093768 1185.16406,30.9140612 1184.91406,31.1640625 C1184.66406,31.4140638 1184.35938,31.5390625 1184,31.5390625 C1183.64062,31.5390625 1183.33594,31.4140638 1183.08594,31.1640625 C1182.83594,30.9140612 1182.71094,30.6093768 1182.71094,30.25 C1182.71094,29.8906232 1182.83594,29.5859388 1183.08594,29.3359375 C1183.33594,29.0859362 1183.64062,28.9609375 1184,28.9609375 C1184.35938,28.9609375 1184.66406,29.0859362 1184.91406,29.3359375 Z M1195.03906,25.84375 C1195.67969,27.250007 1196,28.7109299 1196,30.2265625 C1196,31.7734452 1195.67969,33.2421805 1195.03906,34.6328125 C1194.42968,35.9765692 1193.57032,37.1640573 1192.46094,38.1953125 C1191.35156,39.2265677 1190.07813,40.0312471 1188.64062,40.609375 C1187.15624,41.1875029 1185.60938,41.4765625 1184,41.4765625 C1182.71874,41.4765625 1181.46876,41.2890644 1180.25,40.9140625 L1176.78125,42.8828125 C1176.64062,42.9609379 1176.5,43 1176.35938,43 C1176.21875,43 1176.09375,42.9687503 1175.98438,42.90625 C1175.71875,42.7656243 1175.5625,42.5468765 1175.51562,42.25 L1174.97656,37.65625 C1174.02343,36.6249948 1173.28907,35.4726626 1172.77344,34.1992188 C1172.25781,32.9257749 1172,31.6015694 1172,30.2265625 C1172,28.7109299 1172.32031,27.250007 1172.96094,25.84375 C1173.57032,24.4999933 1174.42968,23.3046927 1175.53906,22.2578125 C1176.64844,21.2265573 1177.92187,20.4296903 1179.35938,19.8671875 C1180.82813,19.2890596 1182.37499,19 1184,19 C1185.62501,19 1187.17187,19.2890596 1188.64062,19.8671875 C1190.07813,20.4296903 1191.35156,21.2265573 1192.46094,22.2578125 C1193.57032,23.3046927 1194.42968,24.4999933 1195.03906,25.84375 Z M1193.51562,33.9296875 C1194.04688,32.7578066 1194.3125,31.5273502 1194.3125,30.2382812 C1194.3125,28.9492123 1194.04688,27.7187559 1193.51562,26.546875 C1193,25.4062443 1192.26563,24.3945357 1191.3125,23.5117188 C1190.35937,22.6289018 1189.26563,21.9375025 1188.03125,21.4375 C1186.74999,20.9374975 1185.40626,20.6875 1184,20.6875 C1182.59374,20.6875 1181.25001,20.9374975 1179.96875,21.4375 C1178.73437,21.9218774 1177.64063,22.6093705 1176.6875,23.5 C1175.73437,24.3906295 1175,25.4062443 1174.48438,26.546875 C1173.95312,27.7187559 1173.6875,28.9453061 1173.6875,30.2265625 C1173.6875,31.4296935 1173.91797,32.585932 1174.37891,33.6953125 C1174.83985,34.804693 1175.50781,35.7968706 1176.38281,36.671875 C1176.52344,36.8125007 1176.60156,36.9765616 1176.61719,37.1640625 L1177.03906,40.796875 L1179.73438,39.2734375 C1179.95313,39.1484369 1180.1875,39.1249996 1180.4375,39.203125 C1181.57813,39.593752 1182.76562,39.7890625 1184,39.7890625 C1185.40626,39.7890625 1186.74999,39.5312526 1188.03125,39.015625 C1189.26563,38.5312476 1190.35937,37.8515669 1191.3125,36.9765625 C1192.26563,36.085933 1193,35.0703182 1193.51562,33.9296875 Z" id="message---anticon" fill="#FFFFFF"></path>
    </g>
</svg>
