<?xml version="1.0" encoding="UTF-8" standalone="no"?>
<!DOCTYPE svg PUBLIC "-//W3C//DTD SVG 1.1//EN"
 "http://www.w3.org/Graphics/SVG/1.1/DTD/svg11.dtd">
<!-- Generated by graphviz version 2.40.1 (20161225.0304)
 -->
<!-- Title: Payments Pages: 1 -->
<svg width="775pt" height="174pt"
 viewBox="0.00 0.00 775.21 174.20" xmlns="http://www.w3.org/2000/svg" xmlns:xlink="http://www.w3.org/1999/xlink">
<g id="graph0" class="graph" transform="scale(1 1) rotate(0) translate(36 138.2012)">
<title>Payments</title>
<polygon fill="#ffffff" stroke="transparent" points="-36,36 -36,-138.2012 739.2119,-138.2012 739.2119,36 -36,36"/>
<!-- Alma API -->
<g id="node1" class="node">
<title>Alma API</title>
<polygon fill="none" stroke="#000000" points="72.5958,-87.4982 -.1993,-87.4982 -.1993,-14.703 72.5958,-14.703 72.5958,-87.4982"/>
<text text-anchor="middle" x="36.1982" y="-46.9006" font-family="Times,serif" font-size="14.00" fill="#000000">Alma API</text>
</g>
<!-- UAL Payments -->
<g id="node2" class="node">
<title>UAL Payments</title>
<polygon fill="none" stroke="#000000" points="398.7092,-102.302 296.3064,-102.302 296.3064,.1008 398.7092,.1008 398.7092,-102.302"/>
<text text-anchor="middle" x="347.5078" y="-46.9006" font-family="Times,serif" font-size="14.00" fill="#000000">UAL Payments</text>
</g>
<!-- Alma API&#45;&gt;UAL Payments -->
<g id="edge1" class="edge">
<title>Alma API&#45;&gt;UAL Payments</title>
<path fill="none" stroke="#000000" d="M72.5187,-51.1006C124.8595,-51.1006 222.1909,-51.1006 285.8987,-51.1006"/>
<polygon fill="#000000" stroke="#000000" points="286.2125,-54.6007 296.2124,-51.1006 286.2124,-47.6007 286.2125,-54.6007"/>
<text text-anchor="middle" x="184.4019" y="-53.9006" font-family="Times,serif" font-size="14.00" fill="#000000">1. Retrieve fees from Alma</text>
</g>
<!-- UAL Payments&#45;&gt;Alma API -->
<g id="edge4" class="edge">
<title>UAL Payments&#45;&gt;Alma API</title>
<path fill="none" stroke="#000000" d="M296.2942,-28.9044C284.7043,-24.8394 272.3029,-21.2166 260.4072,-19.1006 193.8911,-7.2685 174.4922,-5.1093 108.3965,-19.1006 99.6255,-20.9572 90.6247,-23.9533 82.0837,-27.3854"/>
<polygon fill="#000000" stroke="#000000" points="80.4922,-24.2593 72.6728,-31.4083 83.2437,-30.6959 80.4922,-24.2593"/>
<text text-anchor="middle" x="184.4019" y="-21.9006" font-family="Times,serif" font-size="14.00" fill="#000000">4. Remove fees from Alma</text>
</g>
<!-- Payflow -->
<g id="node3" class="node">
<title>Payflow</title>
<polygon fill="none" stroke="#000000" points="703.1602,-81.9972 641.3671,-81.9972 641.3671,-20.204 703.1602,-20.204 703.1602,-81.9972"/>
<text text-anchor="middle" x="672.2637" y="-46.9006" font-family="Times,serif" font-size="14.00" fill="#000000">Payflow</text>
</g>
<!-- UAL Payments&#45;&gt;Payflow -->
<g id="edge2" class="edge">
<title>UAL Payments&#45;&gt;Payflow</title>
<path fill="none" stroke="#000000" d="M398.9663,-51.1006C463.2494,-51.1006 571.959,-51.1006 631.0428,-51.1006"/>
<polygon fill="#000000" stroke="#000000" points="631.1282,-54.6007 641.1282,-51.1006 631.1281,-47.6007 631.1282,-54.6007"/>
<text text-anchor="middle" x="519.9619" y="-53.9006" font-family="Times,serif" font-size="14.00" fill="#000000">2. Send transaction to Payflow</text>
</g>
<!-- Payflow&#45;&gt;UAL Payments -->
<g id="edge3" class="edge">
<title>Payflow&#45;&gt;UAL Payments</title>
<path fill="none" stroke="#000000" d="M641.3069,-32.7684C630.3245,-27.2356 617.6278,-21.8919 605.3154,-19.1006 531.3233,-2.326 509.3056,-5.8132 434.6084,-19.1006 425.9655,-20.638 417.0555,-22.9708 408.3838,-25.6908"/>
<polygon fill="#000000" stroke="#000000" points="407.1058,-22.4273 398.7214,-28.9044 409.315,-29.0695 407.1058,-22.4273"/>
<text text-anchor="middle" x="519.9619" y="-21.9006" font-family="Times,serif" font-size="14.00" fill="#000000">3. Silent POST to /result</text>
</g>
</g>
</svg>
