<svg xmlns="http://www.w3.org/2000/svg" viewBox="0 0 16.94 22.7"><title>account</title><g id="Layer_2" data-name="Layer 2"><g id="Layer_1-2" data-name="Layer 1"><g id="Page-1"><g id="Artboard-3-Copy-4"><path id="_" data-name="" d="M16.25,18.48a8.87,8.87,0,0,1,.69,3.31.92.92,0,0,1-.92.91.9.9,0,0,1-.91-.91,6.41,6.41,0,0,0-1.94-4.71,6.41,6.41,0,0,0-4.7-1.95,6.37,6.37,0,0,0-4.7,2,6.44,6.44,0,0,0-1.94,4.7.87.87,0,0,1-.27.64.88.88,0,0,1-.65.27.85.85,0,0,1-.64-.27A.87.87,0,0,1,0,21.79a8.47,8.47,0,0,1,.66-3.31A8.32,8.32,0,0,1,5.15,14a6.4,6.4,0,0,1,1.07-.38A6.94,6.94,0,0,1,1.47,7,6.72,6.72,0,0,1,3.52,2,6.73,6.73,0,0,1,8.46,0a6.79,6.79,0,0,1,4.95,2A6.72,6.72,0,0,1,15.46,7a6.74,6.74,0,0,1-2.05,4.95,6.83,6.83,0,0,1-2.72,1.68,7.53,7.53,0,0,1,1.07.38,8.32,8.32,0,0,1,4.49,4.49ZM4.8,10.64a5,5,0,0,0,3.66,1.52,5,5,0,0,0,3.64-1.52A5,5,0,0,0,13.61,7,5,5,0,0,0,12.1,3.34,5,5,0,0,0,8.46,1.83,5,5,0,0,0,4.81,3.34,5,5,0,0,0,3.3,7,5,5,0,0,0,4.8,10.64Z" fill="#fff"/></g></g></g></g></svg>