<svg xmlns="http://www.w3.org/2000/svg" xmlns:xlink="http://www.w3.org/1999/xlink" width="246" height="44.46" viewBox="0 0 246 44.46"><defs><style>.c24a0dd5-d902-4de7-abb3-05347c8ca08b{fill:#fff;}.\38 d0b1805-2b87-42dd-9f93-3a902b106e83{mask:url(#f446ea31-4dcc-4305-bb2e-5396bd62560f);}.\34 343f96d-9206-4dc4-a033-368154892407{fill:#fffffe;}.fd4c24c1-7d8a-46fb-8d2b-db6051d6465e{fill:#aa2537;}.ae22ac0d-ccbf-42fc-b59c-0526bf4e57a2{fill:#012043;}</style><mask id="f446ea31-4dcc-4305-bb2e-5396bd62560f" x="0" y="0" width="48.56" height="44.46" maskUnits="userSpaceOnUse"><g id="1874ff33-d605-47d0-bed2-da004b95aecf" data-name="mask-2"><polygon id="c536c38c-7c11-41b1-9d92-1956c576f039" data-name="path-1" class="c24a0dd5-d902-4de7-abb3-05347c8ca08b" points="24.28 0 0 0 0 44.41 48.56 44.41 48.56 0 24.28 0"/></g></mask></defs><title>branding</title><g id="c4db43fd-346e-42d1-b94c-9ed8475ba788" data-name="Layer 2"><g id="138c39f1-b4c0-491a-be6d-ff276f383741" data-name="Layer 1"><g id="fe1fbc8d-f753-4af4-b87c-b1e75a1eaaaf" data-name="Artboard-Copy-5"><g id="ee509e55-6bdd-4965-8ca1-0c72b607f995" data-name="UA UL CMYK whole white-Copy"><g id="91856ba4-0f9d-4a69-8701-64130d7c4325" data-name="Group-3"><g class="8d0b1805-2b87-42dd-9f93-3a902b106e83"><polyline id="c6537ea4-0e4e-4a10-8538-0c4bf922c481" data-name="Fill-1" class="4343f96d-9206-4dc4-a033-368154892407" points="9.43 0 9.43 14.43 10.93 14.42 5 30.03 0 30.03 0 44.46 48.56 44.46 48.56 30.01 43.52 30 37.65 14.43 39.12 14.44 39.12 0 9.43 0"/></g></g><path id="36aff0b7-2c8b-4d8e-b466-6fbf8381361e" data-name="Fill-4" class="fd4c24c1-7d8a-46fb-8d2b-db6051d6465e" d="M24.4,5.2,34.79,31.66s1.34,3.22,3.5,3.22H30.72s.38,0,.76-.57a1.17,1.17,0,0,0,0-.88l-2.34-5.91H19.65L17.3,33.43a1.2,1.2,0,0,0,0,.88c.38.62.76.57.76.57H10.53c2.16,0,3.49-3.22,3.49-3.22L24.4,5.2"/><polyline id="d4a469c4-474c-44cc-bdc1-decb02f3c786" data-name="Fill-5" class="ae22ac0d-ccbf-42fc-b59c-0526bf4e57a2" points="24.41 5 33.77 5 33.77 8.74 29.88 8.74 40.11 35.05 43.13 35.05 43.13 38.92 30.46 38.92 30.46 35.16 26.9 35.16 26.9 42.54 46.9 42.54 46.9 31.53 42.41 31.54 35.21 12.38 37.47 12.38 37.47 1.37 11.35 1.37 11.35 12.38 13.61 12.38 6.41 31.51 1.91 31.53 1.91 42.54 21.92 42.54 21.92 35.16 18.36 35.16 18.36 38.92 5.69 38.92 5.69 35.05 8.71 35.05 18.94 8.74 15.05 8.74 15.05 5 24.41 5"/><path id="8a8df42e-bca4-4df2-865f-a803d96a0e64" data-name="Fill-6" class="4343f96d-9206-4dc4-a033-368154892407" d="M50.24,40.48h.46a.69.69,0,0,0,.36-.08.35.35,0,0,0,.11-.28.28.28,0,0,0-.11-.24.69.69,0,0,0-.36-.08h-.46Zm-.34-1h.87a.84.84,0,0,1,.55.16.53.53,0,0,1,.2.44.63.63,0,0,1-.2.48.69.69,0,0,1-.38.16l.62,1h-.39l-.57-.95h-.36v.95H49.9Zm1.92,0a1.52,1.52,0,0,0-2.18,0,1.57,1.57,0,0,0-.44,1.13,1.6,1.6,0,0,0,.44,1.13,1.52,1.52,0,0,0,2.18,0,1.56,1.56,0,0,0,.44-1.13A1.53,1.53,0,0,0,51.82,39.5Zm.27-.23a1.93,1.93,0,1,1-1.36-.56A1.85,1.85,0,0,1,52.09,39.27Z"/><g id="fcd0769d-13e4-4526-9a1e-c42390af8bc0" data-name="Group-10"><polyline id="edf9de44-43e7-43ac-86d9-ed5bf96cf3d7" data-name="Fill-7" class="4343f96d-9206-4dc4-a033-368154892407" points="24.39 25.12 28.02 25.12 24.46 15.74 20.77 25.12 24.39 25.12"/><polygon id="13b71292-e336-4157-bca6-19808b430c14" data-name="Fill-9" class="4343f96d-9206-4dc4-a033-368154892407" points="59.21 44.41 60.08 44.41 60.08 0 59.21 0 59.21 44.41"/></g><polyline id="a97d4951-4c7d-4af8-bf1f-99c1504c1f3b" data-name="Fill-11" class="4343f96d-9206-4dc4-a033-368154892407" points="71.74 9.83 69.88 9.83 69.88 9.03 74.66 9.03 74.66 9.83 72.71 9.83 72.71 15.73 71.74 15.73 71.74 9.83"/><polyline id="653c65aa-f1c1-48d2-bd60-616d1426621b" data-name="Fill-12" class="4343f96d-9206-4dc4-a033-368154892407" points="75.62 9.03 76.5 9.03 76.5 11.86 79.52 11.86 79.52 9.03 80.41 9.03 80.41 15.73 79.52 15.73 79.52 12.62 76.5 12.62 76.5 15.73 75.62 15.73 75.62 9.03"/><polyline id="28d35e71-4cc7-4aa8-bc89-f5a7022e6ead" data-name="Fill-13" class="4343f96d-9206-4dc4-a033-368154892407" points="82.32 9.03 86.15 9.03 86.15 9.83 83.32 9.83 83.32 11.77 85.73 11.77 85.73 12.54 83.32 12.54 83.32 14.94 86.15 14.94 86.15 15.73 82.32 15.73 82.32 9.03"/><path id="58e460bc-d8c7-4e42-af7c-71753975c646" data-name="Fill-14" class="4343f96d-9206-4dc4-a033-368154892407" d="M90,13.35V9h.91v4.21c0,1.07.47,1.71,1.5,1.71s1.51-.64,1.51-1.71V9h.86v4.32a2.18,2.18,0,0,1-2.37,2.38A2.21,2.21,0,0,1,90,13.35"/><path id="6caaf086-d656-43c6-8eee-6846f138c583" data-name="Fill-15" class="4343f96d-9206-4dc4-a033-368154892407" d="M95.72,9h.93l2.51,4.33a9.38,9.38,0,0,1,.53,1.05h0c0-.3,0-.59,0-.95V9h.81v6.7h-1l-2.51-4.31c-.19-.33-.37-.7-.52-1h0c0,.29,0,.55,0,.9v4.43h-.81V9"/><polygon id="4084a6ad-0fe3-4e13-8492-6d32a3924736" data-name="Fill-16" class="4343f96d-9206-4dc4-a033-368154892407" points="103.38 15.73 104.33 15.73 104.33 9.03 103.38 9.03 103.38 15.73"/><path id="8d430e0f-f068-4cdd-9ebf-8674a3f0effe" data-name="Fill-17" class="4343f96d-9206-4dc4-a033-368154892407" d="M105.29,9h1l1.38,4.22c.16.5.37,1.21.44,1.55h0c.09-.34.29-1.06.47-1.55L110.07,9h1l-2.38,6.7h-1L105.29,9"/><polyline id="e870bd90-04e0-403b-a2a5-707f2a24b665" data-name="Fill-18" class="4343f96d-9206-4dc4-a033-368154892407" points="111.99 9.03 115.82 9.03 115.82 9.83 112.99 9.83 112.99 11.77 115.41 11.77 115.41 12.54 112.99 12.54 112.99 14.94 115.82 14.94 115.82 15.73 111.99 15.73 111.99 9.03"/><path id="5bb81602-cba1-4a7d-92bb-6be75f56a5cf" data-name="Fill-19" class="4343f96d-9206-4dc4-a033-368154892407" d="M118.73,12.05A1.07,1.07,0,0,0,120,10.92c0-.76-.38-1.14-1.22-1.14h-1v2.27ZM120,15l-1.47-2.28h-.81v2.93h-.93V9h2.16a1.83,1.83,0,0,1,.52,3.61l1.31,2a.63.63,0,0,0,.56.36.91.91,0,0,0,.23,0v.75a1.5,1.5,0,0,1-.37,0A1.3,1.3,0,0,1,120,15Z"/><path id="7c04df12-6e3a-4185-9c01-04bd3e53ab76" data-name="Fill-20" class="4343f96d-9206-4dc4-a033-368154892407" d="M122.52,15.4v-.83a4.13,4.13,0,0,0,1.59.4c.79,0,1.28-.34,1.28-1.05s-.56-.93-1.49-1.37a1.85,1.85,0,0,1-1.34-1.8c0-1.14.83-1.72,2-1.72a4.73,4.73,0,0,1,1.48.28v.82a3.32,3.32,0,0,0-1.44-.33c-.74,0-1.14.34-1.14.94s.41.78,1.2,1.13,1.68.76,1.68,2a1.86,1.86,0,0,1-2.08,1.85,4.39,4.39,0,0,1-1.75-.33"/><polygon id="44e221b7-6383-4ef8-8e99-b2430342973b" data-name="Fill-21" class="4343f96d-9206-4dc4-a033-368154892407" points="127.31 15.73 128.26 15.73 128.26 9.03 127.31 9.03 127.31 15.73"/><polyline id="00a07c7c-7431-4265-92e9-129fd9529b03" data-name="Fill-22" class="4343f96d-9206-4dc4-a033-368154892407" points="132.05 9.83 130.18 9.83 130.18 9.03 134.97 9.03 134.97 9.83 133.01 9.83 133.01 15.73 132.05 15.73 132.05 9.83"/><polyline id="15636f76-1b0c-4182-8a97-242d21d48ef8" data-name="Fill-23" class="4343f96d-9206-4dc4-a033-368154892407" points="136.91 13.1 134.97 9.03 135.9 9.03 137.4 12.24 138.85 9.03 139.75 9.03 137.77 13.1 137.77 15.73 136.91 15.73 136.91 13.1"/><path id="6b43efdc-f6a6-459c-8a21-0ab0bc4e37e8" data-name="Fill-24" class="4343f96d-9206-4dc4-a033-368154892407" d="M147.39,12.38c0-1.52-.59-2.57-1.9-2.57s-1.88,1.06-1.88,2.58.58,2.57,1.88,2.57S147.39,13.9,147.39,12.38Zm-4.77,0c0-1.78.9-3.36,2.87-3.36s2.88,1.48,2.88,3.35-.9,3.35-2.88,3.35S142.62,14.25,142.62,12.39Z"/><polyline id="238d8dbb-7df6-4301-9d65-a2f32a66aefa" data-name="Fill-25" class="4343f96d-9206-4dc4-a033-368154892407" points="150.28 9.03 154.11 9.03 154.11 9.83 151.26 9.83 151.26 11.79 153.82 11.79 153.82 12.55 151.26 12.55 151.26 15.73 150.28 15.73 150.28 9.03"/><path id="46a816d6-0877-418a-a311-62620423b84a" data-name="Fill-26" class="4343f96d-9206-4dc4-a033-368154892407" d="M160.94,13.28l-.69-2.15c-.14-.46-.32-1-.38-1.3h0c-.09.33-.28.93-.45,1.42l-.68,2ZM159.36,9h1.09l2.27,6.7h-1l-.53-1.67h-2.72l-.56,1.67H157Z"/><path id="ab614ec7-face-4d43-83ff-d416b6f95a02" data-name="Fill-27" class="4343f96d-9206-4dc4-a033-368154892407" d="M165.64,12.05a1.07,1.07,0,0,0,1.22-1.13c0-.76-.39-1.14-1.22-1.14h-1v2.27Zm1.25,3-1.46-2.28h-.82v2.93h-.93V9h2.16a1.83,1.83,0,0,1,.53,3.61l1.3,2a.64.64,0,0,0,.57.36l.23,0v.75a1.58,1.58,0,0,1-.38,0A1.3,1.3,0,0,1,166.89,15Z"/><polygon id="443798c0-5bed-45ec-b486-d6e2d911e4a8" data-name="Fill-28" class="4343f96d-9206-4dc4-a033-368154892407" points="169.42 15.73 170.38 15.73 170.38 9.03 169.42 9.03 169.42 15.73"/><polyline id="8e8066ed-818c-4f66-ac04-7b91e5f30057" data-name="Fill-29" class="4343f96d-9206-4dc4-a033-368154892407" points="172.3 14.96 175.13 9.83 172.41 9.83 172.41 9.03 176.05 9.03 176.05 9.85 173.26 14.94 176.13 14.94 176.13 15.73 172.3 15.73 172.3 14.96"/><path id="6e4c367f-6399-46ed-bc00-3cea0710ba59" data-name="Fill-30" class="4343f96d-9206-4dc4-a033-368154892407" d="M181.85,12.38c0-1.52-.59-2.57-1.9-2.57s-1.88,1.06-1.88,2.58S178.65,15,180,15,181.85,13.9,181.85,12.38Zm-4.77,0c0-1.78.9-3.36,2.87-3.36s2.87,1.48,2.87,3.35-.89,3.35-2.87,3.35S177.08,14.25,177.08,12.39Z"/><path id="d6f865c8-7255-4d13-833a-ec1f48074810" data-name="Fill-31" class="4343f96d-9206-4dc4-a033-368154892407" d="M184.74,9h.93l2.51,4.33a9.38,9.38,0,0,1,.53,1.05h0c0-.3,0-.59,0-.95V9h.81v6.7h-.95l-2.51-4.31c-.19-.33-.37-.7-.52-1h0c0,.29,0,.55,0,.9v4.43h-.81V9"/><path id="33e0d3a4-e69a-4364-b6d0-b8ebda6cd843" data-name="Fill-32" class="4343f96d-9206-4dc4-a033-368154892407" d="M194.44,13.28l-.69-2.15c-.14-.46-.32-1-.38-1.3h0c-.08.33-.28.93-.44,1.42l-.69,2ZM192.86,9H194l2.28,6.7h-1l-.54-1.67H192l-.56,1.67h-.93Z"/><path id="b1c7ae23-4281-4bf8-8448-58ec367e3bba" data-name="Fill-33" class="4343f96d-9206-4dc4-a033-368154892407" d="M81.16,36.45V35a5.32,5.32,0,0,1-4.3,1.83,5.92,5.92,0,0,1-2.77-.63,4,4,0,0,1-1.77-1.72,3.82,3.82,0,0,1-.32-.77,4.92,4.92,0,0,1-.15-.91c0-.36,0-.83,0-1.42v-6.2a10.16,10.16,0,0,0-.08-1.42,1.84,1.84,0,0,0-.28-.8,1.87,1.87,0,0,0-.62-.5H75a1.81,1.81,0,0,0-.6.5,1.74,1.74,0,0,0-.28.8A8.82,8.82,0,0,0,74,25.15v6.2A6.76,6.76,0,0,0,74.14,33a3,3,0,0,0,.6,1.09,3.13,3.13,0,0,0,1.21.87,4,4,0,0,0,1.55.3,4.1,4.1,0,0,0,1.81-.4,3.36,3.36,0,0,0,1.32-1.07,2,2,0,0,0,.35-.7,3.72,3.72,0,0,0,.1-1V25.15A10.16,10.16,0,0,0,81,23.73a1.87,1.87,0,0,0-.28-.8,2,2,0,0,0-.61-.5h4.12a1.78,1.78,0,0,0-.6.5,1.75,1.75,0,0,0-.29.78,10.39,10.39,0,0,0-.08,1.44v8.58a10.18,10.18,0,0,0,.08,1.44,1.74,1.74,0,0,0,.29.79,1.76,1.76,0,0,0,.6.49H81.16"/><path id="4bf5a56c-4d66-4c52-b546-2573c0d486f7" data-name="Fill-34" class="4343f96d-9206-4dc4-a033-368154892407" d="M87.86,26.26v1.83a5.3,5.3,0,0,1,1.52-1.32,3.47,3.47,0,0,1,1.68-.38,4.75,4.75,0,0,1,1.33.19,4,4,0,0,1,1.18.55A2.7,2.7,0,0,1,94.79,29a12.14,12.14,0,0,1,.11,1.87v3.73A4.92,4.92,0,0,0,95,36a2.31,2.31,0,0,0,.7.79H92.1a2.85,2.85,0,0,0,.58-.55,1.13,1.13,0,0,0,.21-.56,7,7,0,0,0,0-1v-3.5a6.38,6.38,0,0,0-.11-1.38,1.88,1.88,0,0,0-.36-.82,2.2,2.2,0,0,0-.9-.67A3.21,3.21,0,0,0,90.3,28a2.76,2.76,0,0,0-1.19.25,2.22,2.22,0,0,0-.86.7A2.16,2.16,0,0,0,88,30.21v4.43A7,7,0,0,0,88,35.71a1.15,1.15,0,0,0,.2.54,3.37,3.37,0,0,0,.57.55H85.19a3.56,3.56,0,0,0,.58-.54,1.21,1.21,0,0,0,.2-.52,9.37,9.37,0,0,0,0-1.1v-5.8a9.15,9.15,0,0,0,0-1.1,1.16,1.16,0,0,0-.2-.52,3.56,3.56,0,0,0-.58-.54h1.39a1.67,1.67,0,0,0,1.28-.42"/><path id="1ff61bee-86d6-4afa-bd78-c57d3dd730a3" data-name="Fill-35" class="4343f96d-9206-4dc4-a033-368154892407" d="M98.58,22.43a1.39,1.39,0,0,1,1,.41,1.31,1.31,0,0,1,.4,1,1.35,1.35,0,0,1-.41,1,1.37,1.37,0,0,1-1,.41,1.34,1.34,0,0,1-1-.41,1.31,1.31,0,0,1-.41-1,1.26,1.26,0,0,1,.42-1A1.47,1.47,0,0,1,98.58,22.43Zm1,3.69v8.49a9.06,9.06,0,0,0,.05,1.09,1.25,1.25,0,0,0,.22.55,3.61,3.61,0,0,0,.61.55H96.68a2.92,2.92,0,0,0,.61-.55,1.21,1.21,0,0,0,.22-.53,9.46,9.46,0,0,0,0-1.11V28.74a9.44,9.44,0,0,0,0-1.12,1.27,1.27,0,0,0-.22-.53,3.25,3.25,0,0,0-.61-.54h1.6A1.78,1.78,0,0,0,99.63,26.12Z"/><path id="9a39b299-788a-42fe-be8d-c659308ed8f5" data-name="Fill-36" class="4343f96d-9206-4dc4-a033-368154892407" d="M107.79,35l2.5-6a3.66,3.66,0,0,0,.36-1.3,1.09,1.09,0,0,0-.14-.59,2.24,2.24,0,0,0-.54-.52h3l-4.76,11.08a11.65,11.65,0,0,1-1.29-.88,2.77,2.77,0,0,1-.64-.74,7.25,7.25,0,0,1-.54-1.16l-2.46-6a12.54,12.54,0,0,0-.55-1.18,1.78,1.78,0,0,0-.41-.52,7.07,7.07,0,0,0-.84-.59h1.4a3.78,3.78,0,0,0,.89-.08,1.75,1.75,0,0,0,.63-.33,3.66,3.66,0,0,0,.27,1L107.79,35"/><path id="c5d936ce-aabf-4306-80dc-21147c546214" data-name="Fill-37" class="4343f96d-9206-4dc4-a033-368154892407" d="M115.43,30h5.72a2.63,2.63,0,0,0-2.81-2.42,2.9,2.9,0,0,0-1.9.63A3,3,0,0,0,115.43,30Zm8,1.35h-8.14a4.55,4.55,0,0,0,.6,2.15,3.47,3.47,0,0,0,1.54,1.39,5.18,5.18,0,0,0,2.29.48,7.26,7.26,0,0,0,1.34-.12,4.77,4.77,0,0,0,1.2-.36,6.83,6.83,0,0,0,1.17-.64l-1.2,2.06a9.25,9.25,0,0,1-1,.3,7.72,7.72,0,0,1-1,.17c-.35,0-.71,0-1.06,0a7.69,7.69,0,0,1-3.24-.67,5.26,5.26,0,0,1-2.24-1.88,4.85,4.85,0,0,1-.79-2.73,5.07,5.07,0,0,1,.22-1.49,5.75,5.75,0,0,1,.63-1.38,5.05,5.05,0,0,1,1-1.14,4.78,4.78,0,0,1,1.65-.93,6.32,6.32,0,0,1,2-.32,5.74,5.74,0,0,1,2,.35,5,5,0,0,1,1.59,1,4.45,4.45,0,0,1,1.06,1.5,4.64,4.64,0,0,1,.38,1.88Z"/><path id="92b40b5e-bb81-42a5-9cb1-ad68bb83f765" data-name="Fill-38" class="4343f96d-9206-4dc4-a033-368154892407" d="M127.81,36.8h-3.37a3.35,3.35,0,0,0,.54-.54,1.34,1.34,0,0,0,.19-.52c0-.21,0-.58,0-1.1v-5.8c0-.53,0-.9,0-1.1a1.28,1.28,0,0,0-.19-.52,3.35,3.35,0,0,0-.54-.54h1.41a1.46,1.46,0,0,0,1.18-.42v1.81a3.24,3.24,0,0,1,1-1.25,2.4,2.4,0,0,1,1.41-.43,3.41,3.41,0,0,1,.71.08v2a1.27,1.27,0,0,0-1-.36,2.22,2.22,0,0,0-1,.24,1.85,1.85,0,0,0-.73.65,3.66,3.66,0,0,0-.44,2v3.62a8.68,8.68,0,0,0,0,1.07,1.27,1.27,0,0,0,.19.54,3.77,3.77,0,0,0,.54.55"/><path id="278b737a-2c88-441a-a4e8-2c8ac8e84800" data-name="Fill-39" class="4343f96d-9206-4dc4-a033-368154892407" d="M138.53,26.55v1.84a5.39,5.39,0,0,0-2.72-.84,2.8,2.8,0,0,0-1.48.34,1,1,0,0,0-.55.87.81.81,0,0,0,.22.56,2.09,2.09,0,0,0,.73.47c.33.14.8.31,1.4.5a17.68,17.68,0,0,1,1.8.65,3.59,3.59,0,0,1,1,.62,2.47,2.47,0,0,1,.86,1.88,2.79,2.79,0,0,1-.6,1.77,3.79,3.79,0,0,1-1.7,1.18,7.43,7.43,0,0,1-2.58.41,8.69,8.69,0,0,1-1.48-.11,11.07,11.07,0,0,1-1.5-.43l-.75-2.13a11.9,11.9,0,0,0,1.5.8,6.2,6.2,0,0,0,1.29.41,6.41,6.41,0,0,0,1.34.13A3.14,3.14,0,0,0,137,35a1.27,1.27,0,0,0,.68-1.08,1.12,1.12,0,0,0-.5-1,12.08,12.08,0,0,0-2.12-.88,12.25,12.25,0,0,1-2-.85,2.83,2.83,0,0,1-1-.9,2.17,2.17,0,0,1-.3-1.17,2.43,2.43,0,0,1,.52-1.56,3.23,3.23,0,0,1,1.5-1,7,7,0,0,1,2.32-.35,9.12,9.12,0,0,1,2.46.29"/><path id="22af7a48-6009-41c3-b7eb-37dd1a39fc4e" data-name="Fill-40" class="4343f96d-9206-4dc4-a033-368154892407" d="M142.61,22.43a1.37,1.37,0,0,1,1,.41,1.38,1.38,0,0,1,0,1.95,1.37,1.37,0,0,1-1,.41,1.34,1.34,0,0,1-1-.41,1.31,1.31,0,0,1-.41-1,1.26,1.26,0,0,1,.42-1A1.48,1.48,0,0,1,142.61,22.43Zm1,3.69v8.49a9.06,9.06,0,0,0,.05,1.09,1.25,1.25,0,0,0,.22.55,3.61,3.61,0,0,0,.61.55h-3.83a2.92,2.92,0,0,0,.61-.55,1.21,1.21,0,0,0,.22-.53,8.86,8.86,0,0,0,.05-1.11V28.74a8.82,8.82,0,0,0-.05-1.12,1.27,1.27,0,0,0-.22-.53,3.25,3.25,0,0,0-.61-.54h1.6A1.78,1.78,0,0,0,143.66,26.12Z"/><path id="65e87e63-32e9-4b20-ba73-74009203c587" data-name="Fill-41" class="4343f96d-9206-4dc4-a033-368154892407" d="M148.13,28v4.56a6.74,6.74,0,0,0,.09,1.31,1.51,1.51,0,0,0,.32.7,2.2,2.2,0,0,0,1.75.73,3.08,3.08,0,0,0,1-.17l-1.18,1.52a2.76,2.76,0,0,1-.82.13,3.21,3.21,0,0,1-2.33-.95,3,3,0,0,1-.52-.69,2.54,2.54,0,0,1-.23-.85,11.88,11.88,0,0,1-.07-1.55V28h-1.55v-.78a3.24,3.24,0,0,0,1.87-.93,3.62,3.62,0,0,0,.84-2.65v-.27h.88v3.2h1.77a4.3,4.3,0,0,0,1.34-.13V28.4a1.56,1.56,0,0,0-.55-.3,3.28,3.28,0,0,0-.87-.08h-1.69"/><path id="3ccc9412-e9b3-4c52-9caa-ba8c6d3fad8b" data-name="Fill-42" class="4343f96d-9206-4dc4-a033-368154892407" d="M157.86,35.29l2.21-5.71a3.74,3.74,0,0,0,.32-1.3,1.17,1.17,0,0,0-.61-1h2.94l-4.48,10.9a7.52,7.52,0,0,1-.73,1.48,4.67,4.67,0,0,1-.88,1,3.83,3.83,0,0,1-1.29.7,4.91,4.91,0,0,1-1.56.23,5.83,5.83,0,0,1-1.12-.11,12.5,12.5,0,0,1-1.42-.43l1.89-1.4a2.41,2.41,0,0,0,1.19.37,1.93,1.93,0,0,0,1.39-.61,5,5,0,0,0,1.08-1.83L157,37q-.37-.37-.51-.54a2.31,2.31,0,0,1-.25-.36c-.07-.13-.18-.36-.32-.69l-2.78-6.19a6,6,0,0,0-.73-1.3,2.13,2.13,0,0,0-.84-.61l2-.09a1.64,1.64,0,0,1,.63.07c.12,0,.26.23.44.63l3.2,7.37"/><path id="47260883-b79a-45a0-9b2d-b084e0686515" data-name="Fill-43" class="4343f96d-9206-4dc4-a033-368154892407" d="M172.44,25.22V35a18,18,0,0,0,2.79.22,5.52,5.52,0,0,0,1.93-.29A7.31,7.31,0,0,0,179,33.9l-1.11,2.9h-8.47a1.57,1.57,0,0,0,.59-.51,2,2,0,0,0,.27-.82,10.72,10.72,0,0,0,.08-1.46V25.22a10.72,10.72,0,0,0-.08-1.46,2.08,2.08,0,0,0-.27-.82,1.77,1.77,0,0,0-.59-.51h3.94a1.58,1.58,0,0,0-.59.51,2,2,0,0,0-.26.82,11,11,0,0,0-.07,1.46"/><path id="ae3afa9a-7437-44f0-aa37-efdfe524f2d8" data-name="Fill-44" class="4343f96d-9206-4dc4-a033-368154892407" d="M181.86,22.43a1.35,1.35,0,0,1,1,.41,1.32,1.32,0,0,1,.41,1,1.35,1.35,0,0,1-.41,1,1.39,1.39,0,0,1-1,.41,1.37,1.37,0,0,1-1-.41,1.35,1.35,0,0,1-.41-1,1.23,1.23,0,0,1,.43-1A1.45,1.45,0,0,1,181.86,22.43Zm1,3.69v8.49A7.34,7.34,0,0,0,183,35.7a1.14,1.14,0,0,0,.22.55,3.88,3.88,0,0,0,.6.55H180a3,3,0,0,0,.62-.55,1.1,1.1,0,0,0,.21-.53,8.86,8.86,0,0,0,.05-1.11V28.74a8.82,8.82,0,0,0-.05-1.12,1.14,1.14,0,0,0-.21-.53,3.4,3.4,0,0,0-.62-.54h1.61A1.81,1.81,0,0,0,182.91,26.12Z"/><path id="3187143d-d344-43b0-bad9-4748c4fa4e9b" data-name="Fill-45" class="4343f96d-9206-4dc4-a033-368154892407" d="M188,29.07l1.2-1.86a4.75,4.75,0,0,1,.74-.22,4.06,4.06,0,0,1,.75-.06,4.38,4.38,0,0,1,1.81.38A4.48,4.48,0,0,1,194,28.4a4.91,4.91,0,0,1,1,1.62,6,6,0,0,1,.34,2,5.73,5.73,0,0,1-.77,3,5.2,5.2,0,0,1-2.18,2,7.21,7.21,0,0,1-3.24.71,17.85,17.85,0,0,1-4.18-.4,1.34,1.34,0,0,0,.53-.57,2.67,2.67,0,0,0,.13-1V25a9.55,9.55,0,0,0,0-1.12,1.21,1.21,0,0,0-.2-.52,3.17,3.17,0,0,0-.58-.54h1.5a1.72,1.72,0,0,0,1.27-.43V35.92a7.82,7.82,0,0,0,1.85.25,3.43,3.43,0,0,0,3.69-3.69,4.86,4.86,0,0,0-.41-2,3.3,3.3,0,0,0-1.13-1.38,2.9,2.9,0,0,0-1.67-.49,4,4,0,0,0-.89.1,5.13,5.13,0,0,0-1,.4"/><path id="c030ded7-ce42-408c-a431-0844f43fc058" data-name="Fill-46" class="4343f96d-9206-4dc4-a033-368154892407" d="M199.6,36.8h-3.37a3.35,3.35,0,0,0,.54-.54,1.34,1.34,0,0,0,.19-.52c0-.21,0-.58,0-1.1v-5.8c0-.53,0-.9,0-1.1a1.28,1.28,0,0,0-.19-.52,3.35,3.35,0,0,0-.54-.54h1.41a1.46,1.46,0,0,0,1.18-.42v1.81a3.24,3.24,0,0,1,1-1.25,2.4,2.4,0,0,1,1.41-.43,3.41,3.41,0,0,1,.71.08v2a1.27,1.27,0,0,0-1-.36,2.22,2.22,0,0,0-1,.24,1.85,1.85,0,0,0-.73.65,3.66,3.66,0,0,0-.44,2v3.62a8.68,8.68,0,0,0,.05,1.07,1.27,1.27,0,0,0,.19.54,3.77,3.77,0,0,0,.54.55"/><path id="b5630019-cad1-468f-af3c-074a413ec13f" data-name="Fill-47" class="4343f96d-9206-4dc4-a033-368154892407" d="M209.59,33.89V31.11a5.14,5.14,0,0,1-.66.27c-.19.06-.39.13-.62.19s-.74.18-1.54.35c-1.06.26-1.59.81-1.59,1.66a1.53,1.53,0,0,0,.62,1.29,2.79,2.79,0,0,0,1.72.47,5.8,5.8,0,0,0,1.65-.28l-1.3,1.61a5.83,5.83,0,0,1-1.21.13,3.83,3.83,0,0,1-2.61-.84,3.08,3.08,0,0,1-1.12-2.4,2.62,2.62,0,0,1,.33-1.27,2.2,2.2,0,0,1,.9-.89,10.91,10.91,0,0,1,2.9-.84,7.17,7.17,0,0,0,2-.59,1,1,0,0,0,.5-.88,1.08,1.08,0,0,0-.27-.72,1.59,1.59,0,0,0-.75-.49,3.37,3.37,0,0,0-1.09-.17,4.66,4.66,0,0,0-1.31.18,10.72,10.72,0,0,0-1.7.68l1.45-2.17a8.48,8.48,0,0,1,1.54-.14c1.86,0,3.1.49,3.72,1.45a2.56,2.56,0,0,1,.36.93,11.86,11.86,0,0,1,.08,1.65v2.78a5.43,5.43,0,0,0,.09,1.24,1.14,1.14,0,0,0,.47.58,2.29,2.29,0,0,0,1.32.35l-1,1.41a8.46,8.46,0,0,1-1.24-.16,2.72,2.72,0,0,1-.84-.33,1.54,1.54,0,0,1-.66-.76,4.52,4.52,0,0,1-.17-1.51"/><path id="6c1eb666-4db3-455f-a319-e55168ee85b4" data-name="Fill-48" class="4343f96d-9206-4dc4-a033-368154892407" d="M217.78,36.8h-3.37a2.67,2.67,0,0,0,.54-.54,1.2,1.2,0,0,0,.19-.52,9.37,9.37,0,0,0,0-1.1v-5.8a9.15,9.15,0,0,0,0-1.1,1.15,1.15,0,0,0-.19-.52,2.67,2.67,0,0,0-.54-.54h1.42a1.47,1.47,0,0,0,1.18-.42v1.81a3.16,3.16,0,0,1,1-1.25,2.38,2.38,0,0,1,1.41-.43,3.48,3.48,0,0,1,.71.08v2a1.27,1.27,0,0,0-1-.36,2.19,2.19,0,0,0-1,.24,1.88,1.88,0,0,0-.74.65,3.76,3.76,0,0,0-.43,2v3.62a8.68,8.68,0,0,0,.05,1.07,1.15,1.15,0,0,0,.19.54,4.16,4.16,0,0,0,.53.55"/><path id="4968ee54-ded0-4b0e-988b-4b01fcb2f99d" data-name="Fill-49" class="4343f96d-9206-4dc4-a033-368154892407" d="M223,22.43a1.35,1.35,0,0,1,1,.41,1.32,1.32,0,0,1,.41,1,1.35,1.35,0,0,1-.41,1,1.39,1.39,0,0,1-1,.41,1.4,1.4,0,0,1-1.42-1.4,1.23,1.23,0,0,1,.43-1A1.45,1.45,0,0,1,223,22.43Zm1,3.69v8.49a7,7,0,0,0,.06,1.09,1.14,1.14,0,0,0,.22.55,3.88,3.88,0,0,0,.6.55h-3.83a3,3,0,0,0,.62-.55,1.1,1.1,0,0,0,.21-.53,8.86,8.86,0,0,0,.05-1.11V28.74a8.82,8.82,0,0,0-.05-1.12,1.14,1.14,0,0,0-.21-.53,3.4,3.4,0,0,0-.62-.54h1.61A1.77,1.77,0,0,0,224.06,26.12Z"/><path id="8f32f039-d3fc-4b27-a4dc-5e43c9bfadbb" data-name="Fill-50" class="4343f96d-9206-4dc4-a033-368154892407" d="M228.38,30h5.72a2.63,2.63,0,0,0-2.81-2.42,2.88,2.88,0,0,0-1.9.63A3,3,0,0,0,228.38,30Zm8.05,1.35h-8.14a4.55,4.55,0,0,0,.6,2.15,3.47,3.47,0,0,0,1.54,1.39,5.18,5.18,0,0,0,2.29.48,7.34,7.34,0,0,0,1.34-.12,4.9,4.9,0,0,0,1.2-.36,6.83,6.83,0,0,0,1.17-.64l-1.2,2.06a9.25,9.25,0,0,1-1,.3,7.72,7.72,0,0,1-1,.17c-.35,0-.71,0-1.06,0a7.66,7.66,0,0,1-3.24-.67,5.26,5.26,0,0,1-2.24-1.88,4.85,4.85,0,0,1-.79-2.73,5.07,5.07,0,0,1,.22-1.49,5.75,5.75,0,0,1,.63-1.38,5.05,5.05,0,0,1,.95-1.14,4.78,4.78,0,0,1,1.65-.93,6.32,6.32,0,0,1,2-.32,5.74,5.74,0,0,1,2,.35,5,5,0,0,1,1.59,1,4.45,4.45,0,0,1,1.06,1.5,4.64,4.64,0,0,1,.38,1.88Z"/><path id="2a83406f-caff-4bce-aec7-c1a3e6bd7fb0" data-name="Fill-51" class="4343f96d-9206-4dc4-a033-368154892407" d="M244.78,26.55v1.84a5.39,5.39,0,0,0-2.72-.84,2.8,2.8,0,0,0-1.48.34,1,1,0,0,0-.56.87.82.82,0,0,0,.23.56,2.09,2.09,0,0,0,.73.47c.33.14.8.31,1.4.5a17.68,17.68,0,0,1,1.8.65,3.59,3.59,0,0,1,1,.62,2.47,2.47,0,0,1,.86,1.88,2.79,2.79,0,0,1-.6,1.77,3.79,3.79,0,0,1-1.7,1.18,7.43,7.43,0,0,1-2.58.41,8.69,8.69,0,0,1-1.48-.11,11.07,11.07,0,0,1-1.5-.43l-.75-2.13a11.9,11.9,0,0,0,1.5.8,6.2,6.2,0,0,0,1.29.41,6.41,6.41,0,0,0,1.34.13,3.14,3.14,0,0,0,1.7-.44A1.27,1.27,0,0,0,243.9,34a1.12,1.12,0,0,0-.5-1,12.08,12.08,0,0,0-2.12-.88,12.25,12.25,0,0,1-2-.85,2.83,2.83,0,0,1-1-.9,2.17,2.17,0,0,1-.3-1.17,2.43,2.43,0,0,1,.52-1.56,3.23,3.23,0,0,1,1.5-1,7,7,0,0,1,2.32-.35,9.12,9.12,0,0,1,2.46.29"/></g></g></g></g></svg>
